<svg width="20" height="26" viewBox="0 0 20 26" fill="none" xmlns="http://www.w3.org/2000/svg">
<path id="Vector" d="M8.75065 0.75V1.91667H4.08398C2.15099 1.91667 0.583984 3.48368 0.583984 5.41667V8.91667C0.583984 12.1383 3.19566 14.75 6.41732 14.75H13.4173C16.6389 14.75 19.2506 12.1383 19.2506 8.91667V5.41667C19.2506 3.48368 17.6837 1.91667 15.7506 1.91667H11.084V0.75H8.75065ZM2.91732 5.41667C2.91732 4.77234 3.43966 4.25 4.08398 4.25H15.7506C16.395 4.25 16.9173 4.77234 16.9173 5.41667V8.91667C16.9173 10.8497 15.3504 12.4167 13.4173 12.4167H6.41732C4.48433 12.4167 2.91732 10.8497 2.91732 8.91667V5.41667ZM7.00065 10.0833C7.96712 10.0833 8.75065 9.29983 8.75065 8.33333C8.75065 7.36683 7.96712 6.58333 7.00065 6.58333C6.03415 6.58333 5.25065 7.36683 5.25065 8.33333C5.25065 9.29983 6.03415 10.0833 7.00065 10.0833ZM12.834 10.0833C13.8004 10.0833 14.584 9.29983 14.584 8.33333C14.584 7.36683 13.8004 6.58333 12.834 6.58333C11.8675 6.58333 11.084 7.36683 11.084 8.33333C11.084 9.29983 11.8675 10.0833 12.834 10.0833ZM2.91732 25.25C2.91732 21.384 6.05132 18.25 9.91732 18.25C13.7833 18.25 16.9173 21.384 16.9173 25.25H19.2506C19.2506 20.0953 15.072 15.9167 9.91732 15.9167C4.76266 15.9167 0.583984 20.0953 0.583984 25.25H2.91732Z" fill="currentColor"/>
</svg>
