<svg width="57" height="56" viewBox="0 0 57 56" fill="none" xmlns="http://www.w3.org/2000/svg">
<g id="android-line">
<path id="Vector" d="M44.7327 30.3337H12.0661V46.667H44.7327V30.3337ZM44.7327 25.667C44.7327 16.6463 37.4201 9.33366 28.3994 9.33366C19.3788 9.33366 12.0661 16.6463 12.0661 25.667H44.7327ZM15.2915 9.25923C18.8841 6.38542 23.4411 4.66699 28.3994 4.66699C33.3577 4.66699 37.9147 6.38542 41.5074 9.25923L44.8986 5.86801L48.1984 9.16783L44.8072 12.559C47.6809 16.1516 49.3994 20.7086 49.3994 25.667V49.0003C49.3994 50.289 48.3548 51.3337 47.0661 51.3337H9.73275C8.44409 51.3337 7.39941 50.289 7.39941 49.0003V25.667C7.39941 20.7086 9.11784 16.1516 11.9916 12.559L8.60043 9.16783L11.9002 5.86801L15.2915 9.25923ZM21.3994 21.0003C20.1108 21.0003 19.0661 19.9556 19.0661 18.667C19.0661 17.3783 20.1108 16.3337 21.3994 16.3337C22.6881 16.3337 23.7327 17.3783 23.7327 18.667C23.7327 19.9556 22.6881 21.0003 21.3994 21.0003ZM35.3994 21.0003C34.1107 21.0003 33.0661 19.9556 33.0661 18.667C33.0661 17.3783 34.1107 16.3337 35.3994 16.3337C36.6881 16.3337 37.7327 17.3783 37.7327 18.667C37.7327 19.9556 36.6881 21.0003 35.3994 21.0003Z" fill="white"/>
</g>
</svg>
