<svg width="204" height="210" viewBox="0 0 204 210" fill="none" xmlns="http://www.w3.org/2000/svg">
<path d="M1.98023 113.536L2.45576 113.382L1.98023 113.536ZM9.24566 91.1753L8.95176 90.7708L9.24566 91.1753ZM28.6003 195.464L28.1247 195.619L28.6003 195.464ZM152.787 195.464L153.262 195.618L152.787 195.464ZM172.141 91.1753L172.435 90.7708L172.141 91.1753ZM179.407 113.536L178.931 113.381L179.407 113.536ZM102.449 40.541L102.155 40.9455L102.449 40.541ZM78.9378 40.541L78.6439 40.1365L78.9378 40.541ZM24.487 114.006L24.0115 114.161L24.487 114.006ZM28.1197 102.826L28.4136 103.23L28.1197 102.826ZM46.3339 181.244L46.8094 181.089L46.3339 181.244ZM136.053 181.244L135.578 181.089L136.053 181.244ZM154.267 102.826L154.561 102.421L154.267 102.826ZM157.9 114.006L158.375 114.161L157.9 114.006ZM97.0713 61.2705L96.7775 61.675L97.0713 61.2705ZM85.3156 61.2705L85.0217 60.866L85.3156 61.2705ZM88.5268 37C88.5268 38.4728 89.7207 39.6667 91.1935 39.6667C92.6663 39.6667 93.8602 38.4728 93.8602 37C93.8602 35.5272 92.6663 34.3333 91.1935 34.3333C89.7207 34.3333 88.5268 35.5272 88.5268 37ZM176.451 99.896C176.451 101.369 177.645 102.563 179.117 102.563C180.59 102.563 181.784 101.369 181.784 99.896C181.784 98.4232 180.59 97.2293 179.117 97.2293C177.645 97.2293 176.451 98.4232 176.451 99.896ZM102.155 40.9455L171.847 91.5798L172.435 90.7708L102.743 40.1365L102.155 40.9455ZM178.931 113.381L152.311 195.309L153.262 195.618L179.882 113.691L178.931 113.381ZM133.766 208.784H47.6214V209.784H133.766V208.784ZM29.0758 195.309L2.45576 113.382L1.50471 113.691L28.1247 195.619L29.0758 195.309ZM9.53955 91.5798L79.2317 40.9455L78.6439 40.1365L8.95176 90.7708L9.53955 91.5798ZM2.45576 113.382C-0.154786 105.347 2.70505 96.5454 9.53955 91.5798L8.95176 90.7708C1.76677 95.991 -1.23972 105.244 1.50471 113.691L2.45576 113.382ZM47.6214 208.784C39.1735 208.784 31.6863 203.344 29.0758 195.309L28.1247 195.619C30.8691 204.065 38.7403 209.784 47.6214 209.784V208.784ZM152.311 195.309C149.701 203.344 142.214 208.784 133.766 208.784V209.784C142.647 209.784 150.518 204.065 153.262 195.618L152.311 195.309ZM171.847 91.5798C178.682 96.5454 181.542 105.347 178.931 113.381L179.882 113.691C182.627 105.244 179.62 95.991 172.435 90.7708L171.847 91.5798ZM102.743 40.1365C95.5581 34.9163 85.8289 34.9163 78.6439 40.1365L79.2317 40.9455C86.0662 35.98 95.3208 35.98 102.155 40.9455L102.743 40.1365ZM96.7775 61.675L153.973 103.23L154.561 102.421L97.3652 60.866L96.7775 61.675ZM157.424 113.852L135.578 181.089L136.529 181.398L158.375 114.161L157.424 113.852ZM126.542 187.654H55.8445V188.654H126.542V187.654ZM46.8094 181.089L24.9626 113.852L24.0115 114.161L45.8584 181.398L46.8094 181.089ZM28.4136 103.23L85.6095 61.675L85.0217 60.866L27.8258 102.421L28.4136 103.23ZM24.9626 113.852C23.6908 109.937 25.084 105.649 28.4136 103.23L27.8258 102.421C24.1457 105.095 22.6058 109.834 24.0115 114.161L24.9626 113.852ZM55.8445 187.654C51.7288 187.654 48.0813 185.004 46.8094 181.089L45.8584 181.398C47.2641 185.725 51.2956 188.654 55.8445 188.654V187.654ZM135.578 181.089C134.306 185.004 130.658 187.654 126.542 187.654V188.654C131.091 188.654 135.123 185.725 136.529 181.398L135.578 181.089ZM153.973 103.23C157.303 105.649 158.696 109.937 157.424 113.852L158.375 114.161C159.781 109.834 158.241 105.095 154.561 102.421L153.973 103.23ZM97.3652 60.866C93.6851 58.1922 88.7019 58.1922 85.0217 60.866L85.6095 61.675C88.9391 59.2559 93.4478 59.2559 96.7775 61.675L97.3652 60.866ZM91.6935 37L91.6935 -42L90.6935 -42L90.6935 37H91.6935ZM179.337 100.345L250.341 65.7141L249.903 64.8153L178.898 99.4466L179.337 100.345Z" fill="url(#paint0_linear_505_4455)" fill-opacity="0.24"/>
<defs>
<linearGradient id="paint0_linear_505_4455" x1="1" y1="-42" x2="252.274" y2="207.113" gradientUnits="userSpaceOnUse">
<stop stop-color="#FFE600" stop-opacity="0"/>
<stop offset="1" stop-color="#FFE600"/>
</linearGradient>
</defs>
</svg>
