<svg width="29" height="28" viewBox="0 0 29 28" fill="none" xmlns="http://www.w3.org/2000/svg">
<g id="folder-user-line">
<path id="Vector" d="M14.5669 5.83333H24.5837C25.228 5.83333 25.7503 6.35567 25.7503 7V23.3333C25.7503 23.9777 25.228 24.5 24.5837 24.5H3.58366C2.93933 24.5 2.41699 23.9777 2.41699 23.3333V4.66667C2.41699 4.02234 2.93933 3.5 3.58366 3.5H12.2336L14.5669 5.83333ZM4.75033 5.83333V22.1667H23.417V8.16667H13.6004L11.2671 5.83333H4.75033ZM9.41699 21C9.41699 18.4227 11.5063 16.3333 14.0837 16.3333C16.6609 16.3333 18.7503 18.4227 18.7503 21H9.41699ZM14.0837 15.1667C12.4728 15.1667 11.167 13.8608 11.167 12.25C11.167 10.6392 12.4728 9.33333 14.0837 9.33333C15.6945 9.33333 17.0003 10.6392 17.0003 12.25C17.0003 13.8608 15.6945 15.1667 14.0837 15.1667Z" fill="currentColor"/>
</g>
</svg>
