<svg width="29" height="28" viewBox="0 0 29 28" fill="none" xmlns="http://www.w3.org/2000/svg">
<g id="shapes-line">
<path id="Vector" d="M14.2494 1.16699L7.24967 12.8337H21.2497L14.2494 1.16699ZM14.2494 5.70218L17.1285 10.5003H11.3707L14.2494 5.70218ZM8.12467 23.3337C6.35276 23.3337 4.91634 21.8973 4.91634 20.1253C4.91634 18.3534 6.35276 16.917 8.12467 16.917C9.89658 16.917 11.333 18.3534 11.333 20.1253C11.333 21.8973 9.89658 23.3337 8.12467 23.3337ZM8.12467 25.667C11.1852 25.667 13.6663 23.186 13.6663 20.1253C13.6663 17.0647 11.1852 14.5837 8.12467 14.5837C5.0641 14.5837 2.58301 17.0647 2.58301 20.1253C2.58301 23.186 5.0641 25.667 8.12467 25.667ZM17.7497 18.0837V22.7503H22.4163V18.0837H17.7497ZM15.4163 25.0837V15.7503H24.7497V25.0837H15.4163Z" fill="currentColor" />
</g>
</svg>
