<svg width="22" height="24" viewBox="0 0 22 24" fill="none" xmlns="http://www.w3.org/2000/svg">
<path id="Vector" d="M3.25033 12.0003C3.25033 12.366 3.78817 13.0018 5.03587 13.6256C6.65005 14.4327 8.93989 14.917 11.417 14.917C13.8941 14.917 16.1839 14.4327 17.7981 13.6256C19.0458 13.0018 19.5837 12.366 19.5837 12.0003V9.46714C17.6587 10.6566 14.7155 11.417 11.417 11.417C8.11851 11.417 5.17528 10.6566 3.25033 9.46714V12.0003ZM19.5837 15.3005C17.6587 16.4899 14.7155 17.2503 11.417 17.2503C8.11851 17.2503 5.17528 16.4899 3.25033 15.3005V17.8337C3.25033 18.1993 3.78817 18.8351 5.03587 19.4589C6.65005 20.266 8.93989 20.7503 11.417 20.7503C13.8941 20.7503 16.1839 20.266 17.7981 19.4589C19.0458 18.8351 19.5837 18.1993 19.5837 17.8337V15.3005ZM0.916992 17.8337V6.16699C0.916992 3.2675 5.61801 0.916992 11.417 0.916992C17.216 0.916992 21.917 3.2675 21.917 6.16699V17.8337C21.917 20.7332 17.216 23.0837 11.417 23.0837C5.61801 23.0837 0.916992 20.7332 0.916992 17.8337ZM11.417 9.08366C13.8941 9.08366 16.1839 8.5994 17.7981 7.79231C19.0458 7.16846 19.5837 6.53265 19.5837 6.16699C19.5837 5.80133 19.0458 5.16552 17.7981 4.54167C16.1839 3.73459 13.8941 3.25033 11.417 3.25033C8.93989 3.25033 6.65005 3.73459 5.03587 4.54167C3.78817 5.16552 3.25033 5.80133 3.25033 6.16699C3.25033 6.53265 3.78817 7.16846 5.03587 7.79231C6.65005 8.5994 8.93989 9.08366 11.417 9.08366Z" fill="currentColor"/>
</svg>
