<svg width="56" height="56" viewBox="0 0 57 56" fill="none" xmlns="http://www.w3.org/2000/svg">
<g id="telegram-fill">
<path id="Vector" d="M28.6019 51.3337C15.7152 51.3337 5.26855 40.8869 5.26855 28.0003C5.26855 15.1137 15.7152 4.66699 28.6019 4.66699C41.4885 4.66699 51.9353 15.1137 51.9353 28.0003C51.9353 40.8869 41.4885 51.3337 28.6019 51.3337ZM21.3456 30.7322L21.3751 30.7135C22.7278 35.1793 23.4041 37.4123 23.4041 37.4123C23.6661 38.1368 24.0263 38.2661 24.4633 38.207C24.9001 38.1478 25.132 37.9114 25.4172 37.6363C25.4172 37.6363 26.3419 36.7438 28.1913 34.959L34.1434 39.3632C35.2279 39.9624 36.011 39.6532 36.2802 38.355L40.1484 20.1053C40.5754 18.4066 39.8264 17.7254 38.5093 18.2646L15.7989 27.0369C14.2495 27.6597 14.257 28.5265 15.5168 28.9129L21.3456 30.7322Z" fill="white"/>
</g>
</svg>
