<svg width="1036" height="415" viewBox="0 0 1036 415" fill="none" xmlns="http://www.w3.org/2000/svg">
<path d="M77 151.5L5 193L90.5 242L33.5 275L204.5 373.5L318.5 308.5L347.5 324.5L409.5 288.5" stroke="white" stroke-opacity="0.66"/>
<path d="M959.5 151.5L1031.5 193L946 242L1003 275L832 373.5L718 308.5L689 324.5L627 288.5" stroke="white" stroke-opacity="0.66"/>
<path d="M392 238L333 203.5L276.5 237L219 203.5L248 187.5L191 154.5L209 144" stroke="white" stroke-opacity="0.66"/>
<path d="M644 238L703 203.5L759.5 237L817 203.5L788 187.5L845 154.5L827 144" stroke="white" stroke-opacity="0.66"/>
<g filter="url(#filter0_b_1721_81)">
<path d="M134.5 1L191 34V66.5L134.5 99.5L77 66.5V34L134.5 1Z" fill="url(#paint0_linear_1721_81)" fill-opacity="0.24"/>
<path d="M134.5 66.5L191 34M134.5 66.5L77 34M134.5 66.5V99.5M191 34L134.5 1L77 34M191 34V66.5L134.5 99.5M77 34V66.5L134.5 99.5" stroke="white" stroke-opacity="0.48"/>
</g>
<path d="M77 153.667C76.2636 153.667 75.6667 154.264 75.6667 155C75.6667 155.736 76.2636 156.333 77 156.333C77.7364 156.333 78.3333 155.736 78.3333 155C78.3333 154.264 77.7364 153.667 77 153.667ZM76.75 155L76.75 219L77.25 219L77.25 155L76.75 155Z" fill="url(#paint1_linear_1721_81)"/>
<path d="M134 97.6667C133.264 97.6667 132.667 98.2636 132.667 99C132.667 99.7364 133.264 100.333 134 100.333C134.736 100.333 135.333 99.7364 135.333 99C135.333 98.2636 134.736 97.6667 134 97.6667ZM133.75 99L133.75 163L134.25 163L134.25 99L133.75 99Z" fill="url(#paint2_linear_1721_81)"/>
<path d="M152 109.667C151.264 109.667 150.667 110.264 150.667 111C150.667 111.736 151.264 112.333 152 112.333C152.736 112.333 153.333 111.736 153.333 111C153.333 110.264 152.736 109.667 152 109.667ZM151.75 111L151.75 175L152.25 175L152.25 111L151.75 111Z" fill="url(#paint3_linear_1721_81)"/>
<path d="M116 109.667C115.264 109.667 114.667 110.264 114.667 111C114.667 111.736 115.264 112.333 116 112.333C116.736 112.333 117.333 111.736 117.333 111C117.333 110.264 116.736 109.667 116 109.667ZM115.75 111L115.75 175L116.25 175L116.25 111L115.75 111Z" fill="url(#paint4_linear_1721_81)"/>
<path d="M77 65.6667C76.2636 65.6667 75.6667 66.2636 75.6667 67C75.6667 67.7364 76.2636 68.3333 77 68.3333C77.7364 68.3333 78.3333 67.7364 78.3333 67C78.3333 66.2636 77.7364 65.6667 77 65.6667ZM76.75 67L76.75 131L77.25 131L77.25 67L76.75 67Z" fill="url(#paint5_linear_1721_81)"/>
<path d="M191 65.6667C190.264 65.6667 189.667 66.2636 189.667 67C189.667 67.7364 190.264 68.3333 191 68.3333C191.736 68.3333 192.333 67.7364 192.333 67C192.333 66.2636 191.736 65.6667 191 65.6667ZM190.75 67L190.75 131L191.25 131L191.25 67L190.75 67Z" fill="url(#paint6_linear_1721_81)"/>
<g filter="url(#filter1_b_1721_81)">
<path d="M59.5 45L116 78V110.5L59.5 143.5L2 110.5V78L59.5 45Z" fill="url(#paint7_linear_1721_81)" fill-opacity="0.24"/>
<path d="M59.5 110.5L116 78M59.5 110.5L2 78M59.5 110.5V143.5M116 78L59.5 45L2 78M116 78V110.5L59.5 143.5M2 78V110.5L59.5 143.5" stroke="white" stroke-opacity="0.48"/>
</g>
<g filter="url(#filter2_b_1721_81)">
<path d="M209.5 45L266 78V110.5L209.5 143.5L152 110.5V78L209.5 45Z" fill="url(#paint8_linear_1721_81)" fill-opacity="0.24"/>
<path d="M209.5 110.5L266 78M209.5 110.5L152 78M209.5 110.5V143.5M266 78L209.5 45L152 78M266 78V110.5L209.5 143.5M152 78V110.5L209.5 143.5" stroke="white" stroke-opacity="0.48"/>
</g>
<g filter="url(#filter3_b_1721_81)">
<path d="M134.5 88.5L191 121.5V154L134.5 187L77 154V121.5L134.5 88.5Z" fill="url(#paint9_linear_1721_81)" fill-opacity="0.24"/>
<path d="M134.5 154L191 121.5M134.5 154L77 121.5M134.5 154V187M191 121.5L134.5 88.5L77 121.5M191 121.5V154L134.5 187M77 121.5V154L134.5 187" stroke="white" stroke-opacity="0.48"/>
</g>
<path d="M134 185.667C133.264 185.667 132.667 186.264 132.667 187C132.667 187.736 133.264 188.333 134 188.333C134.736 188.333 135.333 187.736 135.333 187C135.333 186.264 134.736 185.667 134 185.667ZM133.75 187L133.75 251L134.25 251L134.25 187L133.75 187Z" fill="url(#paint10_linear_1721_81)"/>
<path d="M191 153.667C190.264 153.667 189.667 154.264 189.667 155C189.667 155.736 190.264 156.333 191 156.333C191.736 156.333 192.333 155.736 192.333 155C192.333 154.264 191.736 153.667 191 153.667ZM190.75 155L190.75 219L191.25 219L191.25 155L190.75 155Z" fill="url(#paint11_linear_1721_81)"/>
<path d="M209 142.667C208.264 142.667 207.667 143.264 207.667 144C207.667 144.736 208.264 145.333 209 145.333C209.736 145.333 210.333 144.736 210.333 144C210.333 143.264 209.736 142.667 209 142.667ZM208.75 144L208.75 208L209.25 208L209.25 144L208.75 144Z" fill="url(#paint12_linear_1721_81)"/>
<path d="M266 108.667C265.264 108.667 264.667 109.264 264.667 110C264.667 110.736 265.264 111.333 266 111.333C266.736 111.333 267.333 110.736 267.333 110C267.333 109.264 266.736 108.667 266 108.667ZM265.75 110L265.75 174L266.25 174L266.25 110L265.75 110Z" fill="url(#paint13_linear_1721_81)"/>
<path d="M59 142.667C58.2636 142.667 57.6667 143.264 57.6667 144C57.6667 144.736 58.2636 145.333 59 145.333C59.7364 145.333 60.3333 144.736 60.3333 144C60.3333 143.264 59.7364 142.667 59 142.667ZM58.75 144L58.75 208L59.25 208L59.25 144L58.75 144Z" fill="url(#paint14_linear_1721_81)"/>
<path d="M2 108.667C1.26362 108.667 0.666667 109.264 0.666667 110C0.666667 110.736 1.26362 111.333 2 111.333C2.73638 111.333 3.33333 110.736 3.33333 110C3.33333 109.264 2.73638 108.667 2 108.667ZM1.75 110L1.75 174L2.25 174L2.25 110L1.75 110Z" fill="url(#paint15_linear_1721_81)"/>
<g filter="url(#filter4_b_1721_81)">
<path d="M518.5 165L575 198V230.5L518.5 263.5L461 230.5V198L518.5 165Z" fill="url(#paint16_linear_1721_81)" fill-opacity="0.24"/>
<path d="M518.5 230.5L575 198M518.5 230.5L461 198M518.5 230.5V263.5M575 198L518.5 165L461 198M575 198V230.5L518.5 263.5M461 198V230.5L518.5 263.5" stroke="white" stroke-opacity="0.48"/>
</g>
<g filter="url(#filter5_b_1721_81)">
<path d="M518.5 121L575 154V186.5L518.5 219.5L461 186.5V154L518.5 121Z" fill="url(#paint17_linear_1721_81)" fill-opacity="0.24"/>
<path d="M518.5 186.5L575 154M518.5 186.5L461 154M518.5 186.5V219.5M575 154L518.5 121L461 154M575 154V186.5L518.5 219.5M461 154V186.5L518.5 219.5" stroke="white" stroke-opacity="0.48"/>
</g>
<path d="M461 317.667C460.264 317.667 459.667 318.264 459.667 319C459.667 319.736 460.264 320.333 461 320.333C461.736 320.333 462.333 319.736 462.333 319C462.333 318.264 461.736 317.667 461 317.667ZM460.75 319L460.75 383L461.25 383L461.25 319L460.75 319Z" fill="url(#paint18_linear_1721_81)"/>
<path d="M518 261.667C517.264 261.667 516.667 262.264 516.667 263C516.667 263.736 517.264 264.333 518 264.333C518.736 264.333 519.333 263.736 519.333 263C519.333 262.264 518.736 261.667 518 261.667ZM517.75 263L517.75 327L518.25 327L518.25 263L517.75 263Z" fill="url(#paint19_linear_1721_81)"/>
<path d="M536 273.667C535.264 273.667 534.667 274.264 534.667 275C534.667 275.736 535.264 276.333 536 276.333C536.736 276.333 537.333 275.736 537.333 275C537.333 274.264 536.736 273.667 536 273.667ZM535.75 275L535.75 339L536.25 339L536.25 275L535.75 275Z" fill="url(#paint20_linear_1721_81)"/>
<path d="M500 273.667C499.264 273.667 498.667 274.264 498.667 275C498.667 275.736 499.264 276.333 500 276.333C500.736 276.333 501.333 275.736 501.333 275C501.333 274.264 500.736 273.667 500 273.667ZM499.75 275L499.75 339L500.25 339L500.25 275L499.75 275Z" fill="url(#paint21_linear_1721_81)"/>
<path d="M461 229.667C460.264 229.667 459.667 230.264 459.667 231C459.667 231.736 460.264 232.333 461 232.333C461.736 232.333 462.333 231.736 462.333 231C462.333 230.264 461.736 229.667 461 229.667ZM460.75 231L460.75 295L461.25 295L461.25 231L460.75 231Z" fill="url(#paint22_linear_1721_81)"/>
<path d="M575 229.667C574.264 229.667 573.667 230.264 573.667 231C573.667 231.736 574.264 232.333 575 232.333C575.736 232.333 576.333 231.736 576.333 231C576.333 230.264 575.736 229.667 575 229.667ZM574.75 231L574.75 295L575.25 295L575.25 231L574.75 231Z" fill="url(#paint23_linear_1721_81)"/>
<g filter="url(#filter6_b_1721_81)">
<path d="M443.5 209L500 242V274.5L443.5 307.5L386 274.5V242L443.5 209Z" fill="url(#paint24_linear_1721_81)" fill-opacity="0.24"/>
<path d="M443.5 274.5L500 242M443.5 274.5L386 242M443.5 274.5V307.5M500 242L443.5 209L386 242M500 242V274.5L443.5 307.5M386 242V274.5L443.5 307.5" stroke="white" stroke-opacity="0.48"/>
</g>
<g filter="url(#filter7_b_1721_81)">
<path d="M443.5 165L500 198V230.5L443.5 263.5L386 230.5V198L443.5 165Z" fill="url(#paint25_linear_1721_81)" fill-opacity="0.24"/>
<path d="M443.5 230.5L500 198M443.5 230.5L386 198M443.5 230.5V263.5M500 198L443.5 165L386 198M500 198V230.5L443.5 263.5M386 198V230.5L443.5 263.5" stroke="white" stroke-opacity="0.48"/>
</g>
<g filter="url(#filter8_b_1721_81)">
<path d="M593.5 209L650 242V274.5L593.5 307.5L536 274.5V242L593.5 209Z" fill="url(#paint26_linear_1721_81)" fill-opacity="0.24"/>
<path d="M593.5 274.5L650 242M593.5 274.5L536 242M593.5 274.5V307.5M650 242L593.5 209L536 242M650 242V274.5L593.5 307.5M536 242V274.5L593.5 307.5" stroke="white" stroke-opacity="0.48"/>
</g>
<g filter="url(#filter9_b_1721_81)">
<path d="M593.5 165L650 198V230.5L593.5 263.5L536 230.5V198L593.5 165Z" fill="url(#paint27_linear_1721_81)" fill-opacity="0.24"/>
<path d="M593.5 230.5L650 198M593.5 230.5L536 198M593.5 230.5V263.5M650 198L593.5 165L536 198M650 198V230.5L593.5 263.5M536 198V230.5L593.5 263.5" stroke="white" stroke-opacity="0.48"/>
</g>
<g filter="url(#filter10_b_1721_81)">
<path d="M518.5 252.5L575 285.5V318L518.5 351L461 318V285.5L518.5 252.5Z" fill="url(#paint28_linear_1721_81)" fill-opacity="0.24"/>
<path d="M518.5 318L575 285.5M518.5 318L461 285.5M518.5 318V351M575 285.5L518.5 252.5L461 285.5M575 285.5V318L518.5 351M461 285.5V318L518.5 351" stroke="white" stroke-opacity="0.48"/>
</g>
<g filter="url(#filter11_b_1721_81)">
<path d="M518.5 208.5L575 241.5V274L518.5 307L461 274V241.5L518.5 208.5Z" fill="url(#paint29_linear_1721_81)" fill-opacity="0.24"/>
<path d="M518.5 274L575 241.5M518.5 274L461 241.5M518.5 274V307M575 241.5L518.5 208.5L461 241.5M575 241.5V274L518.5 307M461 241.5V274L518.5 307" stroke="white" stroke-opacity="0.48"/>
</g>
<path d="M518 349.667C517.264 349.667 516.667 350.264 516.667 351C516.667 351.736 517.264 352.333 518 352.333C518.736 352.333 519.333 351.736 519.333 351C519.333 350.264 518.736 349.667 518 349.667ZM517.75 351L517.75 415L518.25 415L518.25 351L517.75 351Z" fill="url(#paint30_linear_1721_81)"/>
<path d="M575 317.667C574.264 317.667 573.667 318.264 573.667 319C573.667 319.736 574.264 320.333 575 320.333C575.736 320.333 576.333 319.736 576.333 319C576.333 318.264 575.736 317.667 575 317.667ZM574.75 319L574.75 383L575.25 383L575.25 319L574.75 319Z" fill="url(#paint31_linear_1721_81)"/>
<path d="M593 306.667C592.264 306.667 591.667 307.264 591.667 308C591.667 308.736 592.264 309.333 593 309.333C593.736 309.333 594.333 308.736 594.333 308C594.333 307.264 593.736 306.667 593 306.667ZM592.75 308L592.75 372L593.25 372L593.25 308L592.75 308Z" fill="url(#paint32_linear_1721_81)"/>
<path d="M650 272.667C649.264 272.667 648.667 273.264 648.667 274C648.667 274.736 649.264 275.333 650 275.333C650.736 275.333 651.333 274.736 651.333 274C651.333 273.264 650.736 272.667 650 272.667ZM649.75 274L649.75 338L650.25 338L650.25 274L649.75 274Z" fill="url(#paint33_linear_1721_81)"/>
<path d="M443 306.667C442.264 306.667 441.667 307.264 441.667 308C441.667 308.736 442.264 309.333 443 309.333C443.736 309.333 444.333 308.736 444.333 308C444.333 307.264 443.736 306.667 443 306.667ZM442.75 308L442.75 372L443.25 372L443.25 308L442.75 308Z" fill="url(#paint34_linear_1721_81)"/>
<path d="M386 272.667C385.264 272.667 384.667 273.264 384.667 274C384.667 274.736 385.264 275.333 386 275.333C386.736 275.333 387.333 274.736 387.333 274C387.333 273.264 386.736 272.667 386 272.667ZM385.75 274L385.75 338L386.25 338L386.25 274L385.75 274Z" fill="url(#paint35_linear_1721_81)"/>
<g filter="url(#filter12_b_1721_81)">
<path d="M902.5 1L959 34V66.5L902.5 99.5L845 66.5V34L902.5 1Z" fill="url(#paint36_linear_1721_81)" fill-opacity="0.24"/>
<path d="M902.5 66.5L959 34M902.5 66.5L845 34M902.5 66.5V99.5M959 34L902.5 1L845 34M959 34V66.5L902.5 99.5M845 34V66.5L902.5 99.5" stroke="white" stroke-opacity="0.48"/>
</g>
<path d="M845 153.667C844.264 153.667 843.667 154.264 843.667 155C843.667 155.736 844.264 156.333 845 156.333C845.736 156.333 846.333 155.736 846.333 155C846.333 154.264 845.736 153.667 845 153.667ZM844.75 155L844.75 219L845.25 219L845.25 155L844.75 155Z" fill="url(#paint37_linear_1721_81)"/>
<path d="M902 97.6667C901.264 97.6667 900.667 98.2636 900.667 99C900.667 99.7364 901.264 100.333 902 100.333C902.736 100.333 903.333 99.7364 903.333 99C903.333 98.2636 902.736 97.6667 902 97.6667ZM901.75 99L901.75 163L902.25 163L902.25 99L901.75 99Z" fill="url(#paint38_linear_1721_81)"/>
<path d="M920 109.667C919.264 109.667 918.667 110.264 918.667 111C918.667 111.736 919.264 112.333 920 112.333C920.736 112.333 921.333 111.736 921.333 111C921.333 110.264 920.736 109.667 920 109.667ZM919.75 111L919.75 175L920.25 175L920.25 111L919.75 111Z" fill="url(#paint39_linear_1721_81)"/>
<path d="M884 109.667C883.264 109.667 882.667 110.264 882.667 111C882.667 111.736 883.264 112.333 884 112.333C884.736 112.333 885.333 111.736 885.333 111C885.333 110.264 884.736 109.667 884 109.667ZM883.75 111L883.75 175L884.25 175L884.25 111L883.75 111Z" fill="url(#paint40_linear_1721_81)"/>
<path d="M845 65.6667C844.264 65.6667 843.667 66.2636 843.667 67C843.667 67.7364 844.264 68.3333 845 68.3333C845.736 68.3333 846.333 67.7364 846.333 67C846.333 66.2636 845.736 65.6667 845 65.6667ZM844.75 67L844.75 131L845.25 131L845.25 67L844.75 67Z" fill="url(#paint41_linear_1721_81)"/>
<path d="M959 65.6667C958.264 65.6667 957.667 66.2636 957.667 67C957.667 67.7364 958.264 68.3333 959 68.3333C959.736 68.3333 960.333 67.7364 960.333 67C960.333 66.2636 959.736 65.6667 959 65.6667ZM958.75 67L958.75 131L959.25 131L959.25 67L958.75 67Z" fill="url(#paint42_linear_1721_81)"/>
<g filter="url(#filter13_b_1721_81)">
<path d="M827.5 45L884 78V110.5L827.5 143.5L770 110.5V78L827.5 45Z" fill="url(#paint43_linear_1721_81)" fill-opacity="0.24"/>
<path d="M827.5 110.5L884 78M827.5 110.5L770 78M827.5 110.5V143.5M884 78L827.5 45L770 78M884 78V110.5L827.5 143.5M770 78V110.5L827.5 143.5" stroke="white" stroke-opacity="0.48"/>
</g>
<g filter="url(#filter14_b_1721_81)">
<path d="M977.5 45L1034 78V110.5L977.5 143.5L920 110.5V78L977.5 45Z" fill="url(#paint44_linear_1721_81)" fill-opacity="0.24"/>
<path d="M977.5 110.5L1034 78M977.5 110.5L920 78M977.5 110.5V143.5M1034 78L977.5 45L920 78M1034 78V110.5L977.5 143.5M920 78V110.5L977.5 143.5" stroke="white" stroke-opacity="0.48"/>
</g>
<g filter="url(#filter15_b_1721_81)">
<path d="M902.5 88.5L959 121.5V154L902.5 187L845 154V121.5L902.5 88.5Z" fill="url(#paint45_linear_1721_81)" fill-opacity="0.24"/>
<path d="M902.5 154L959 121.5M902.5 154L845 121.5M902.5 154V187M959 121.5L902.5 88.5L845 121.5M959 121.5V154L902.5 187M845 121.5V154L902.5 187" stroke="white" stroke-opacity="0.48"/>
</g>
<path d="M902 185.667C901.264 185.667 900.667 186.264 900.667 187C900.667 187.736 901.264 188.333 902 188.333C902.736 188.333 903.333 187.736 903.333 187C903.333 186.264 902.736 185.667 902 185.667ZM901.75 187L901.75 251L902.25 251L902.25 187L901.75 187Z" fill="url(#paint46_linear_1721_81)"/>
<path d="M959 153.667C958.264 153.667 957.667 154.264 957.667 155C957.667 155.736 958.264 156.333 959 156.333C959.736 156.333 960.333 155.736 960.333 155C960.333 154.264 959.736 153.667 959 153.667ZM958.75 155L958.75 219L959.25 219L959.25 155L958.75 155Z" fill="url(#paint47_linear_1721_81)"/>
<path d="M977 142.667C976.264 142.667 975.667 143.264 975.667 144C975.667 144.736 976.264 145.333 977 145.333C977.736 145.333 978.333 144.736 978.333 144C978.333 143.264 977.736 142.667 977 142.667ZM976.75 144L976.75 208L977.25 208L977.25 144L976.75 144Z" fill="url(#paint48_linear_1721_81)"/>
<path d="M1034 108.667C1033.26 108.667 1032.67 109.264 1032.67 110C1032.67 110.736 1033.26 111.333 1034 111.333C1034.74 111.333 1035.33 110.736 1035.33 110C1035.33 109.264 1034.74 108.667 1034 108.667ZM1033.75 110L1033.75 174L1034.25 174L1034.25 110L1033.75 110Z" fill="url(#paint49_linear_1721_81)"/>
<path d="M827 142.667C826.264 142.667 825.667 143.264 825.667 144C825.667 144.736 826.264 145.333 827 145.333C827.736 145.333 828.333 144.736 828.333 144C828.333 143.264 827.736 142.667 827 142.667ZM826.75 144L826.75 208L827.25 208L827.25 144L826.75 144Z" fill="url(#paint50_linear_1721_81)"/>
<path d="M770 108.667C769.264 108.667 768.667 109.264 768.667 110C768.667 110.736 769.264 111.333 770 111.333C770.736 111.333 771.333 110.736 771.333 110C771.333 109.264 770.736 108.667 770 108.667ZM769.75 110L769.75 174L770.25 174L770.25 110L769.75 110Z" fill="url(#paint51_linear_1721_81)"/>
<g filter="url(#filter16_b_1721_81)">
<rect x="94" y="33" width="80" height="80" rx="40" fill="white" fill-opacity="0.4"/>
<rect x="89" y="28" width="90" height="90" rx="45" stroke="white" stroke-opacity="0.16" stroke-width="10"/>
<path d="M131.667 48.5V50.8333H122.333C118.468 50.8333 115.333 53.9673 115.333 57.8333V64.8333C115.333 71.2766 120.557 76.5 127 76.5H141C147.443 76.5 152.667 71.2766 152.667 64.8333V57.8333C152.667 53.9673 149.533 50.8333 145.667 50.8333H136.333V48.5H131.667ZM120 57.8333C120 56.5447 121.045 55.5 122.333 55.5H145.667C146.956 55.5 148 56.5447 148 57.8333V64.8333C148 68.6993 144.866 71.8333 141 71.8333H127C123.134 71.8333 120 68.6993 120 64.8333V57.8333ZM128.167 67.1667C130.1 67.1667 131.667 65.5997 131.667 63.6667C131.667 61.7337 130.1 60.1667 128.167 60.1667C126.234 60.1667 124.667 61.7337 124.667 63.6667C124.667 65.5997 126.234 67.1667 128.167 67.1667ZM139.833 67.1667C141.766 67.1667 143.333 65.5997 143.333 63.6667C143.333 61.7337 141.766 60.1667 139.833 60.1667C137.901 60.1667 136.333 61.7337 136.333 63.6667C136.333 65.5997 137.901 67.1667 139.833 67.1667ZM120 97.5C120 89.768 126.268 83.5 134 83.5C141.732 83.5 148 89.768 148 97.5H152.667C152.667 87.1906 144.31 78.8333 134 78.8333C123.691 78.8333 115.333 87.1906 115.333 97.5H120Z" fill="black"/>
<path d="M131.667 48.5V50.8333H122.333C118.468 50.8333 115.333 53.9673 115.333 57.8333V64.8333C115.333 71.2766 120.557 76.5 127 76.5H141C147.443 76.5 152.667 71.2766 152.667 64.8333V57.8333C152.667 53.9673 149.533 50.8333 145.667 50.8333H136.333V48.5H131.667ZM120 57.8333C120 56.5447 121.045 55.5 122.333 55.5H145.667C146.956 55.5 148 56.5447 148 57.8333V64.8333C148 68.6993 144.866 71.8333 141 71.8333H127C123.134 71.8333 120 68.6993 120 64.8333V57.8333ZM128.167 67.1667C130.1 67.1667 131.667 65.5997 131.667 63.6667C131.667 61.7337 130.1 60.1667 128.167 60.1667C126.234 60.1667 124.667 61.7337 124.667 63.6667C124.667 65.5997 126.234 67.1667 128.167 67.1667ZM139.833 67.1667C141.766 67.1667 143.333 65.5997 143.333 63.6667C143.333 61.7337 141.766 60.1667 139.833 60.1667C137.901 60.1667 136.333 61.7337 136.333 63.6667C136.333 65.5997 137.901 67.1667 139.833 67.1667ZM120 97.5C120 89.768 126.268 83.5 134 83.5C141.732 83.5 148 89.768 148 97.5H152.667C152.667 87.1906 144.31 78.8333 134 78.8333C123.691 78.8333 115.333 87.1906 115.333 97.5H120Z" fill="white"/>
</g>
<g filter="url(#filter17_b_1721_81)">
<rect x="862" y="33" width="80" height="80" rx="40" fill="white" fill-opacity="0.4"/>
<rect x="857" y="28" width="90" height="90" rx="45" stroke="white" stroke-opacity="0.16" stroke-width="10"/>
<path d="M903.047 51L890.476 71.9524H915.619L903.047 51ZM903.047 59.1448L908.218 67.7619H897.877L903.047 59.1448ZM892.048 90.8095C888.865 90.8095 886.286 88.2299 886.286 85.0476C886.286 81.8654 888.865 79.2857 892.048 79.2857C895.23 79.2857 897.809 81.8654 897.809 85.0476C897.809 88.2299 895.23 90.8095 892.048 90.8095ZM892.048 95C897.544 95 902 90.5443 902 85.0476C902 79.551 897.544 75.0952 892.048 75.0952C886.551 75.0952 882.095 79.551 882.095 85.0476C882.095 90.5443 886.551 95 892.048 95ZM909.333 81.381V89.7619H917.714V81.381H909.333ZM905.143 93.9524V77.1905H921.905V93.9524H905.143Z" fill="black"/>
<path d="M903.047 51L890.476 71.9524H915.619L903.047 51ZM903.047 59.1448L908.218 67.7619H897.877L903.047 59.1448ZM892.048 90.8095C888.865 90.8095 886.286 88.2299 886.286 85.0476C886.286 81.8654 888.865 79.2857 892.048 79.2857C895.23 79.2857 897.809 81.8654 897.809 85.0476C897.809 88.2299 895.23 90.8095 892.048 90.8095ZM892.048 95C897.544 95 902 90.5443 902 85.0476C902 79.551 897.544 75.0952 892.048 75.0952C886.551 75.0952 882.095 79.551 882.095 85.0476C882.095 90.5443 886.551 95 892.048 95ZM909.333 81.381V89.7619H917.714V81.381H909.333ZM905.143 93.9524V77.1905H921.905V93.9524H905.143Z" fill="white"/>
</g>
<g filter="url(#filter18_b_1721_81)">
<rect x="478" y="153" width="80" height="80" rx="40" fill="white" fill-opacity="0.4"/>
<rect x="473" y="148" width="90" height="90" rx="45" stroke="white" stroke-opacity="0.16" stroke-width="10"/>
<path d="M518 213.538L513.251 210.788L513.244 216.247L518 219L522.754 216.248L522.748 210.789L518 213.538ZM527.472 208.054L527.478 213.513L540.454 206V190.981L535.727 193.702V203.274L527.472 208.054ZM535.727 188.248L540.454 185.526V180L535.737 177.269L531.019 180L535.727 182.726V188.248ZM526.302 177.269L531.019 174.538L518 167L504.98 174.538L509.698 177.269L518 172.462L526.302 177.269ZM504.98 180L500.263 177.269L495.545 180V185.527L500.273 188.249V182.726L504.98 180ZM495.545 190.982L500.273 193.703V203.274L508.527 208.053L508.52 213.512L495.545 206V190.982ZM531 185.451L526.302 182.731L518 187.538L509.698 182.731L505 185.451V190.97L513.269 195.731L513.257 205.33L518 208.075L522.741 205.33L522.73 195.731L531 190.969V185.451ZM508.533 202.595L508.538 198.462L505 196.425V200.549L508.533 202.595ZM514.415 180L518 182.075L521.584 180L518 177.925L514.415 180ZM527.46 198.462L531 196.424V200.549L527.465 202.595L527.46 198.462Z" fill="white"/>
</g>
<g filter="url(#filter19_b_1721_81)">
<rect x="878" y="279" width="80" height="80" rx="40" fill="white" fill-opacity="0.4"/>
<rect x="873" y="274" width="90" height="90" rx="45" stroke="white" stroke-opacity="0.16" stroke-width="10"/>
<path d="M902.464 319C902.464 319.696 903.487 320.905 905.861 322.092C908.932 323.627 913.288 324.549 918 324.549C922.713 324.549 927.069 323.627 930.14 322.092C932.513 320.905 933.536 319.696 933.536 319V314.181C929.874 316.444 924.275 317.89 918 317.89C911.725 317.89 906.126 316.444 902.464 314.181V319ZM933.536 325.278C929.874 327.541 924.275 328.988 918 328.988C911.725 328.988 906.126 327.541 902.464 325.278V330.097C902.464 330.793 903.487 332.003 905.861 333.189C908.932 334.725 913.288 335.646 918 335.646C922.713 335.646 927.069 334.725 930.14 333.189C932.513 332.003 933.536 330.793 933.536 330.097V325.278ZM898.025 330.097V307.903C898.025 302.387 906.968 297.915 918 297.915C929.032 297.915 937.975 302.387 937.975 307.903V330.097C937.975 335.613 929.032 340.085 918 340.085C906.968 340.085 898.025 335.613 898.025 330.097ZM918 313.451C922.713 313.451 927.069 312.53 930.14 310.995C932.513 309.808 933.536 308.598 933.536 307.903C933.536 307.207 932.513 305.997 930.14 304.811C927.069 303.275 922.713 302.354 918 302.354C913.288 302.354 908.932 303.275 905.861 304.811C903.487 305.997 902.464 307.207 902.464 307.903C902.464 308.598 903.487 309.808 905.861 310.995C908.932 312.53 913.288 313.451 918 313.451Z" fill="white"/>
</g>
<g filter="url(#filter20_b_1721_81)">
<rect x="77" y="279" width="80" height="80" rx="40" fill="white" fill-opacity="0.4"/>
<rect x="72" y="274" width="90" height="90" rx="45" stroke="white" stroke-opacity="0.16" stroke-width="10"/>
<path d="M117 339.538L112.251 336.788L112.244 342.247L117 345L121.754 342.248L121.748 336.789L117 339.538ZM126.472 334.054L126.478 339.513L139.454 332V316.981L134.727 319.702V329.274L126.472 334.054ZM134.727 314.248L139.454 311.526V306L134.737 303.269L130.019 306L134.727 308.726V314.248ZM125.302 303.269L130.019 300.538L117 293L103.98 300.538L108.698 303.269L117 298.462L125.302 303.269ZM103.98 306L99.2627 303.269L94.5454 306V311.527L99.2725 314.249V308.726L103.98 306ZM94.5454 316.982L99.2725 319.703V329.274L107.527 334.053L107.52 339.512L94.5454 332V316.982ZM130 311.451L125.302 308.731L117 313.538L108.698 308.731L104 311.451V316.97L112.269 321.731L112.257 331.33L117 334.075L121.741 331.33L121.73 321.731L130 316.969V311.451ZM107.533 328.595L107.538 324.462L104 322.425V326.549L107.533 328.595ZM113.415 306L117 308.075L120.584 306L117 303.925L113.415 306ZM126.46 324.462L130 322.424V326.549L126.465 328.595L126.46 324.462Z" fill="white"/>
</g>
<defs>
<filter id="filter0_b_1721_81" x="44.5" y="-31.5781" width="179" height="163.656" filterUnits="userSpaceOnUse" color-interpolation-filters="sRGB">
<feFlood flood-opacity="0" result="BackgroundImageFix"/>
<feGaussianBlur in="BackgroundImageFix" stdDeviation="16"/>
<feComposite in2="SourceAlpha" operator="in" result="effect1_backgroundBlur_1721_81"/>
<feBlend mode="normal" in="SourceGraphic" in2="effect1_backgroundBlur_1721_81" result="shape"/>
</filter>
<filter id="filter1_b_1721_81" x="-30.5" y="12.4219" width="179" height="163.656" filterUnits="userSpaceOnUse" color-interpolation-filters="sRGB">
<feFlood flood-opacity="0" result="BackgroundImageFix"/>
<feGaussianBlur in="BackgroundImageFix" stdDeviation="16"/>
<feComposite in2="SourceAlpha" operator="in" result="effect1_backgroundBlur_1721_81"/>
<feBlend mode="normal" in="SourceGraphic" in2="effect1_backgroundBlur_1721_81" result="shape"/>
</filter>
<filter id="filter2_b_1721_81" x="119.5" y="12.4219" width="179" height="163.656" filterUnits="userSpaceOnUse" color-interpolation-filters="sRGB">
<feFlood flood-opacity="0" result="BackgroundImageFix"/>
<feGaussianBlur in="BackgroundImageFix" stdDeviation="16"/>
<feComposite in2="SourceAlpha" operator="in" result="effect1_backgroundBlur_1721_81"/>
<feBlend mode="normal" in="SourceGraphic" in2="effect1_backgroundBlur_1721_81" result="shape"/>
</filter>
<filter id="filter3_b_1721_81" x="44.5" y="55.9219" width="179" height="163.656" filterUnits="userSpaceOnUse" color-interpolation-filters="sRGB">
<feFlood flood-opacity="0" result="BackgroundImageFix"/>
<feGaussianBlur in="BackgroundImageFix" stdDeviation="16"/>
<feComposite in2="SourceAlpha" operator="in" result="effect1_backgroundBlur_1721_81"/>
<feBlend mode="normal" in="SourceGraphic" in2="effect1_backgroundBlur_1721_81" result="shape"/>
</filter>
<filter id="filter4_b_1721_81" x="428.5" y="132.422" width="179" height="163.656" filterUnits="userSpaceOnUse" color-interpolation-filters="sRGB">
<feFlood flood-opacity="0" result="BackgroundImageFix"/>
<feGaussianBlur in="BackgroundImageFix" stdDeviation="16"/>
<feComposite in2="SourceAlpha" operator="in" result="effect1_backgroundBlur_1721_81"/>
<feBlend mode="normal" in="SourceGraphic" in2="effect1_backgroundBlur_1721_81" result="shape"/>
</filter>
<filter id="filter5_b_1721_81" x="428.5" y="88.4219" width="179" height="163.656" filterUnits="userSpaceOnUse" color-interpolation-filters="sRGB">
<feFlood flood-opacity="0" result="BackgroundImageFix"/>
<feGaussianBlur in="BackgroundImageFix" stdDeviation="16"/>
<feComposite in2="SourceAlpha" operator="in" result="effect1_backgroundBlur_1721_81"/>
<feBlend mode="normal" in="SourceGraphic" in2="effect1_backgroundBlur_1721_81" result="shape"/>
</filter>
<filter id="filter6_b_1721_81" x="353.5" y="176.422" width="179" height="163.656" filterUnits="userSpaceOnUse" color-interpolation-filters="sRGB">
<feFlood flood-opacity="0" result="BackgroundImageFix"/>
<feGaussianBlur in="BackgroundImageFix" stdDeviation="16"/>
<feComposite in2="SourceAlpha" operator="in" result="effect1_backgroundBlur_1721_81"/>
<feBlend mode="normal" in="SourceGraphic" in2="effect1_backgroundBlur_1721_81" result="shape"/>
</filter>
<filter id="filter7_b_1721_81" x="353.5" y="132.422" width="179" height="163.656" filterUnits="userSpaceOnUse" color-interpolation-filters="sRGB">
<feFlood flood-opacity="0" result="BackgroundImageFix"/>
<feGaussianBlur in="BackgroundImageFix" stdDeviation="16"/>
<feComposite in2="SourceAlpha" operator="in" result="effect1_backgroundBlur_1721_81"/>
<feBlend mode="normal" in="SourceGraphic" in2="effect1_backgroundBlur_1721_81" result="shape"/>
</filter>
<filter id="filter8_b_1721_81" x="503.5" y="176.422" width="179" height="163.656" filterUnits="userSpaceOnUse" color-interpolation-filters="sRGB">
<feFlood flood-opacity="0" result="BackgroundImageFix"/>
<feGaussianBlur in="BackgroundImageFix" stdDeviation="16"/>
<feComposite in2="SourceAlpha" operator="in" result="effect1_backgroundBlur_1721_81"/>
<feBlend mode="normal" in="SourceGraphic" in2="effect1_backgroundBlur_1721_81" result="shape"/>
</filter>
<filter id="filter9_b_1721_81" x="503.5" y="132.422" width="179" height="163.656" filterUnits="userSpaceOnUse" color-interpolation-filters="sRGB">
<feFlood flood-opacity="0" result="BackgroundImageFix"/>
<feGaussianBlur in="BackgroundImageFix" stdDeviation="16"/>
<feComposite in2="SourceAlpha" operator="in" result="effect1_backgroundBlur_1721_81"/>
<feBlend mode="normal" in="SourceGraphic" in2="effect1_backgroundBlur_1721_81" result="shape"/>
</filter>
<filter id="filter10_b_1721_81" x="428.5" y="219.922" width="179" height="163.656" filterUnits="userSpaceOnUse" color-interpolation-filters="sRGB">
<feFlood flood-opacity="0" result="BackgroundImageFix"/>
<feGaussianBlur in="BackgroundImageFix" stdDeviation="16"/>
<feComposite in2="SourceAlpha" operator="in" result="effect1_backgroundBlur_1721_81"/>
<feBlend mode="normal" in="SourceGraphic" in2="effect1_backgroundBlur_1721_81" result="shape"/>
</filter>
<filter id="filter11_b_1721_81" x="428.5" y="175.922" width="179" height="163.656" filterUnits="userSpaceOnUse" color-interpolation-filters="sRGB">
<feFlood flood-opacity="0" result="BackgroundImageFix"/>
<feGaussianBlur in="BackgroundImageFix" stdDeviation="16"/>
<feComposite in2="SourceAlpha" operator="in" result="effect1_backgroundBlur_1721_81"/>
<feBlend mode="normal" in="SourceGraphic" in2="effect1_backgroundBlur_1721_81" result="shape"/>
</filter>
<filter id="filter12_b_1721_81" x="812.5" y="-31.5781" width="179" height="163.656" filterUnits="userSpaceOnUse" color-interpolation-filters="sRGB">
<feFlood flood-opacity="0" result="BackgroundImageFix"/>
<feGaussianBlur in="BackgroundImageFix" stdDeviation="16"/>
<feComposite in2="SourceAlpha" operator="in" result="effect1_backgroundBlur_1721_81"/>
<feBlend mode="normal" in="SourceGraphic" in2="effect1_backgroundBlur_1721_81" result="shape"/>
</filter>
<filter id="filter13_b_1721_81" x="737.5" y="12.4219" width="179" height="163.656" filterUnits="userSpaceOnUse" color-interpolation-filters="sRGB">
<feFlood flood-opacity="0" result="BackgroundImageFix"/>
<feGaussianBlur in="BackgroundImageFix" stdDeviation="16"/>
<feComposite in2="SourceAlpha" operator="in" result="effect1_backgroundBlur_1721_81"/>
<feBlend mode="normal" in="SourceGraphic" in2="effect1_backgroundBlur_1721_81" result="shape"/>
</filter>
<filter id="filter14_b_1721_81" x="887.5" y="12.4219" width="179" height="163.656" filterUnits="userSpaceOnUse" color-interpolation-filters="sRGB">
<feFlood flood-opacity="0" result="BackgroundImageFix"/>
<feGaussianBlur in="BackgroundImageFix" stdDeviation="16"/>
<feComposite in2="SourceAlpha" operator="in" result="effect1_backgroundBlur_1721_81"/>
<feBlend mode="normal" in="SourceGraphic" in2="effect1_backgroundBlur_1721_81" result="shape"/>
</filter>
<filter id="filter15_b_1721_81" x="812.5" y="55.9219" width="179" height="163.656" filterUnits="userSpaceOnUse" color-interpolation-filters="sRGB">
<feFlood flood-opacity="0" result="BackgroundImageFix"/>
<feGaussianBlur in="BackgroundImageFix" stdDeviation="16"/>
<feComposite in2="SourceAlpha" operator="in" result="effect1_backgroundBlur_1721_81"/>
<feBlend mode="normal" in="SourceGraphic" in2="effect1_backgroundBlur_1721_81" result="shape"/>
</filter>
<filter id="filter16_b_1721_81" x="68" y="7" width="132" height="132" filterUnits="userSpaceOnUse" color-interpolation-filters="sRGB">
<feFlood flood-opacity="0" result="BackgroundImageFix"/>
<feGaussianBlur in="BackgroundImageFix" stdDeviation="8"/>
<feComposite in2="SourceAlpha" operator="in" result="effect1_backgroundBlur_1721_81"/>
<feBlend mode="normal" in="SourceGraphic" in2="effect1_backgroundBlur_1721_81" result="shape"/>
</filter>
<filter id="filter17_b_1721_81" x="836" y="7" width="132" height="132" filterUnits="userSpaceOnUse" color-interpolation-filters="sRGB">
<feFlood flood-opacity="0" result="BackgroundImageFix"/>
<feGaussianBlur in="BackgroundImageFix" stdDeviation="8"/>
<feComposite in2="SourceAlpha" operator="in" result="effect1_backgroundBlur_1721_81"/>
<feBlend mode="normal" in="SourceGraphic" in2="effect1_backgroundBlur_1721_81" result="shape"/>
</filter>
<filter id="filter18_b_1721_81" x="452" y="127" width="132" height="132" filterUnits="userSpaceOnUse" color-interpolation-filters="sRGB">
<feFlood flood-opacity="0" result="BackgroundImageFix"/>
<feGaussianBlur in="BackgroundImageFix" stdDeviation="8"/>
<feComposite in2="SourceAlpha" operator="in" result="effect1_backgroundBlur_1721_81"/>
<feBlend mode="normal" in="SourceGraphic" in2="effect1_backgroundBlur_1721_81" result="shape"/>
</filter>
<filter id="filter19_b_1721_81" x="852" y="253" width="132" height="132" filterUnits="userSpaceOnUse" color-interpolation-filters="sRGB">
<feFlood flood-opacity="0" result="BackgroundImageFix"/>
<feGaussianBlur in="BackgroundImageFix" stdDeviation="8"/>
<feComposite in2="SourceAlpha" operator="in" result="effect1_backgroundBlur_1721_81"/>
<feBlend mode="normal" in="SourceGraphic" in2="effect1_backgroundBlur_1721_81" result="shape"/>
</filter>
<filter id="filter20_b_1721_81" x="51" y="253" width="132" height="132" filterUnits="userSpaceOnUse" color-interpolation-filters="sRGB">
<feFlood flood-opacity="0" result="BackgroundImageFix"/>
<feGaussianBlur in="BackgroundImageFix" stdDeviation="8"/>
<feComposite in2="SourceAlpha" operator="in" result="effect1_backgroundBlur_1721_81"/>
<feBlend mode="normal" in="SourceGraphic" in2="effect1_backgroundBlur_1721_81" result="shape"/>
</filter>
<linearGradient id="paint0_linear_1721_81" x1="134" y1="1" x2="134" y2="99.5" gradientUnits="userSpaceOnUse">
<stop stop-color="white"/>
<stop offset="1" stop-color="white" stop-opacity="0.01"/>
</linearGradient>
<linearGradient id="paint1_linear_1721_81" x1="76.5" y1="219" x2="76.5" y2="155" gradientUnits="userSpaceOnUse">
<stop offset="0.405" stop-color="white" stop-opacity="0"/>
<stop offset="1" stop-color="white"/>
</linearGradient>
<linearGradient id="paint2_linear_1721_81" x1="133.5" y1="163" x2="133.5" y2="99" gradientUnits="userSpaceOnUse">
<stop offset="0.405" stop-color="white" stop-opacity="0"/>
<stop offset="1" stop-color="white"/>
</linearGradient>
<linearGradient id="paint3_linear_1721_81" x1="151.5" y1="175" x2="151.5" y2="111" gradientUnits="userSpaceOnUse">
<stop offset="0.405" stop-color="white" stop-opacity="0"/>
<stop offset="1" stop-color="white"/>
</linearGradient>
<linearGradient id="paint4_linear_1721_81" x1="115.5" y1="175" x2="115.5" y2="111" gradientUnits="userSpaceOnUse">
<stop offset="0.405" stop-color="white" stop-opacity="0"/>
<stop offset="1" stop-color="white"/>
</linearGradient>
<linearGradient id="paint5_linear_1721_81" x1="76.5" y1="131" x2="76.5" y2="67" gradientUnits="userSpaceOnUse">
<stop offset="0.405" stop-color="white" stop-opacity="0"/>
<stop offset="1" stop-color="white"/>
</linearGradient>
<linearGradient id="paint6_linear_1721_81" x1="190.5" y1="131" x2="190.5" y2="67" gradientUnits="userSpaceOnUse">
<stop offset="0.405" stop-color="white" stop-opacity="0"/>
<stop offset="1" stop-color="white"/>
</linearGradient>
<linearGradient id="paint7_linear_1721_81" x1="59" y1="45" x2="59" y2="143.5" gradientUnits="userSpaceOnUse">
<stop stop-color="white"/>
<stop offset="1" stop-color="white" stop-opacity="0.01"/>
</linearGradient>
<linearGradient id="paint8_linear_1721_81" x1="209" y1="45" x2="209" y2="143.5" gradientUnits="userSpaceOnUse">
<stop stop-color="white"/>
<stop offset="1" stop-color="white" stop-opacity="0.01"/>
</linearGradient>
<linearGradient id="paint9_linear_1721_81" x1="134" y1="88.5" x2="134" y2="187" gradientUnits="userSpaceOnUse">
<stop stop-color="white"/>
<stop offset="1" stop-color="white" stop-opacity="0.01"/>
</linearGradient>
<linearGradient id="paint10_linear_1721_81" x1="133.5" y1="251" x2="133.5" y2="187" gradientUnits="userSpaceOnUse">
<stop offset="0.405" stop-color="white" stop-opacity="0"/>
<stop offset="1" stop-color="white"/>
</linearGradient>
<linearGradient id="paint11_linear_1721_81" x1="190.5" y1="219" x2="190.5" y2="155" gradientUnits="userSpaceOnUse">
<stop offset="0.405" stop-color="white" stop-opacity="0"/>
<stop offset="1" stop-color="white"/>
</linearGradient>
<linearGradient id="paint12_linear_1721_81" x1="208.5" y1="208" x2="208.5" y2="144" gradientUnits="userSpaceOnUse">
<stop offset="0.405" stop-color="white" stop-opacity="0"/>
<stop offset="1" stop-color="white"/>
</linearGradient>
<linearGradient id="paint13_linear_1721_81" x1="265.5" y1="174" x2="265.5" y2="110" gradientUnits="userSpaceOnUse">
<stop offset="0.405" stop-color="white" stop-opacity="0"/>
<stop offset="1" stop-color="white"/>
</linearGradient>
<linearGradient id="paint14_linear_1721_81" x1="58.5" y1="208" x2="58.5" y2="144" gradientUnits="userSpaceOnUse">
<stop offset="0.405" stop-color="white" stop-opacity="0"/>
<stop offset="1" stop-color="white"/>
</linearGradient>
<linearGradient id="paint15_linear_1721_81" x1="1.5" y1="174" x2="1.5" y2="110" gradientUnits="userSpaceOnUse">
<stop offset="0.405" stop-color="white" stop-opacity="0"/>
<stop offset="1" stop-color="white"/>
</linearGradient>
<linearGradient id="paint16_linear_1721_81" x1="518" y1="165" x2="518" y2="263.5" gradientUnits="userSpaceOnUse">
<stop stop-color="white"/>
<stop offset="1" stop-color="white" stop-opacity="0.01"/>
</linearGradient>
<linearGradient id="paint17_linear_1721_81" x1="518" y1="121" x2="518" y2="219.5" gradientUnits="userSpaceOnUse">
<stop stop-color="white"/>
<stop offset="1" stop-color="white" stop-opacity="0.01"/>
</linearGradient>
<linearGradient id="paint18_linear_1721_81" x1="460.5" y1="383" x2="460.5" y2="319" gradientUnits="userSpaceOnUse">
<stop offset="0.405" stop-color="white" stop-opacity="0"/>
<stop offset="1" stop-color="white"/>
</linearGradient>
<linearGradient id="paint19_linear_1721_81" x1="517.5" y1="327" x2="517.5" y2="263" gradientUnits="userSpaceOnUse">
<stop offset="0.405" stop-color="white" stop-opacity="0"/>
<stop offset="1" stop-color="white"/>
</linearGradient>
<linearGradient id="paint20_linear_1721_81" x1="535.5" y1="339" x2="535.5" y2="275" gradientUnits="userSpaceOnUse">
<stop offset="0.405" stop-color="white" stop-opacity="0"/>
<stop offset="1" stop-color="white"/>
</linearGradient>
<linearGradient id="paint21_linear_1721_81" x1="499.5" y1="339" x2="499.5" y2="275" gradientUnits="userSpaceOnUse">
<stop offset="0.405" stop-color="white" stop-opacity="0"/>
<stop offset="1" stop-color="white"/>
</linearGradient>
<linearGradient id="paint22_linear_1721_81" x1="460.5" y1="295" x2="460.5" y2="231" gradientUnits="userSpaceOnUse">
<stop offset="0.405" stop-color="white" stop-opacity="0"/>
<stop offset="1" stop-color="white"/>
</linearGradient>
<linearGradient id="paint23_linear_1721_81" x1="574.5" y1="295" x2="574.5" y2="231" gradientUnits="userSpaceOnUse">
<stop offset="0.405" stop-color="white" stop-opacity="0"/>
<stop offset="1" stop-color="white"/>
</linearGradient>
<linearGradient id="paint24_linear_1721_81" x1="443" y1="209" x2="443" y2="307.5" gradientUnits="userSpaceOnUse">
<stop stop-color="white"/>
<stop offset="1" stop-color="white" stop-opacity="0.01"/>
</linearGradient>
<linearGradient id="paint25_linear_1721_81" x1="443" y1="165" x2="443" y2="263.5" gradientUnits="userSpaceOnUse">
<stop stop-color="white"/>
<stop offset="1" stop-color="white" stop-opacity="0.01"/>
</linearGradient>
<linearGradient id="paint26_linear_1721_81" x1="593" y1="209" x2="593" y2="307.5" gradientUnits="userSpaceOnUse">
<stop stop-color="white"/>
<stop offset="1" stop-color="white" stop-opacity="0.01"/>
</linearGradient>
<linearGradient id="paint27_linear_1721_81" x1="593" y1="165" x2="593" y2="263.5" gradientUnits="userSpaceOnUse">
<stop stop-color="white"/>
<stop offset="1" stop-color="white" stop-opacity="0.01"/>
</linearGradient>
<linearGradient id="paint28_linear_1721_81" x1="518" y1="252.5" x2="518" y2="351" gradientUnits="userSpaceOnUse">
<stop stop-color="white"/>
<stop offset="1" stop-color="white" stop-opacity="0.01"/>
</linearGradient>
<linearGradient id="paint29_linear_1721_81" x1="518" y1="208.5" x2="518" y2="307" gradientUnits="userSpaceOnUse">
<stop stop-color="white"/>
<stop offset="1" stop-color="white" stop-opacity="0.01"/>
</linearGradient>
<linearGradient id="paint30_linear_1721_81" x1="517.5" y1="415" x2="517.5" y2="351" gradientUnits="userSpaceOnUse">
<stop offset="0.405" stop-color="white" stop-opacity="0"/>
<stop offset="1" stop-color="white"/>
</linearGradient>
<linearGradient id="paint31_linear_1721_81" x1="574.5" y1="383" x2="574.5" y2="319" gradientUnits="userSpaceOnUse">
<stop offset="0.405" stop-color="white" stop-opacity="0"/>
<stop offset="1" stop-color="white"/>
</linearGradient>
<linearGradient id="paint32_linear_1721_81" x1="592.5" y1="372" x2="592.5" y2="308" gradientUnits="userSpaceOnUse">
<stop offset="0.405" stop-color="white" stop-opacity="0"/>
<stop offset="1" stop-color="white"/>
</linearGradient>
<linearGradient id="paint33_linear_1721_81" x1="649.5" y1="338" x2="649.5" y2="274" gradientUnits="userSpaceOnUse">
<stop offset="0.405" stop-color="white" stop-opacity="0"/>
<stop offset="1" stop-color="white"/>
</linearGradient>
<linearGradient id="paint34_linear_1721_81" x1="442.5" y1="372" x2="442.5" y2="308" gradientUnits="userSpaceOnUse">
<stop offset="0.405" stop-color="white" stop-opacity="0"/>
<stop offset="1" stop-color="white"/>
</linearGradient>
<linearGradient id="paint35_linear_1721_81" x1="385.5" y1="338" x2="385.5" y2="274" gradientUnits="userSpaceOnUse">
<stop offset="0.405" stop-color="white" stop-opacity="0"/>
<stop offset="1" stop-color="white"/>
</linearGradient>
<linearGradient id="paint36_linear_1721_81" x1="902" y1="1" x2="902" y2="99.5" gradientUnits="userSpaceOnUse">
<stop stop-color="white"/>
<stop offset="1" stop-color="white" stop-opacity="0.01"/>
</linearGradient>
<linearGradient id="paint37_linear_1721_81" x1="844.5" y1="219" x2="844.5" y2="155" gradientUnits="userSpaceOnUse">
<stop offset="0.405" stop-color="white" stop-opacity="0"/>
<stop offset="1" stop-color="white"/>
</linearGradient>
<linearGradient id="paint38_linear_1721_81" x1="901.5" y1="163" x2="901.5" y2="99" gradientUnits="userSpaceOnUse">
<stop offset="0.405" stop-color="white" stop-opacity="0"/>
<stop offset="1" stop-color="white"/>
</linearGradient>
<linearGradient id="paint39_linear_1721_81" x1="919.5" y1="175" x2="919.5" y2="111" gradientUnits="userSpaceOnUse">
<stop offset="0.405" stop-color="white" stop-opacity="0"/>
<stop offset="1" stop-color="white"/>
</linearGradient>
<linearGradient id="paint40_linear_1721_81" x1="883.5" y1="175" x2="883.5" y2="111" gradientUnits="userSpaceOnUse">
<stop offset="0.405" stop-color="white" stop-opacity="0"/>
<stop offset="1" stop-color="white"/>
</linearGradient>
<linearGradient id="paint41_linear_1721_81" x1="844.5" y1="131" x2="844.5" y2="67" gradientUnits="userSpaceOnUse">
<stop offset="0.405" stop-color="white" stop-opacity="0"/>
<stop offset="1" stop-color="white"/>
</linearGradient>
<linearGradient id="paint42_linear_1721_81" x1="958.5" y1="131" x2="958.5" y2="67" gradientUnits="userSpaceOnUse">
<stop offset="0.405" stop-color="white" stop-opacity="0"/>
<stop offset="1" stop-color="white"/>
</linearGradient>
<linearGradient id="paint43_linear_1721_81" x1="827" y1="45" x2="827" y2="143.5" gradientUnits="userSpaceOnUse">
<stop stop-color="white"/>
<stop offset="1" stop-color="white" stop-opacity="0.01"/>
</linearGradient>
<linearGradient id="paint44_linear_1721_81" x1="977" y1="45" x2="977" y2="143.5" gradientUnits="userSpaceOnUse">
<stop stop-color="white"/>
<stop offset="1" stop-color="white" stop-opacity="0.01"/>
</linearGradient>
<linearGradient id="paint45_linear_1721_81" x1="902" y1="88.5" x2="902" y2="187" gradientUnits="userSpaceOnUse">
<stop stop-color="white"/>
<stop offset="1" stop-color="white" stop-opacity="0.01"/>
</linearGradient>
<linearGradient id="paint46_linear_1721_81" x1="901.5" y1="251" x2="901.5" y2="187" gradientUnits="userSpaceOnUse">
<stop offset="0.405" stop-color="white" stop-opacity="0"/>
<stop offset="1" stop-color="white"/>
</linearGradient>
<linearGradient id="paint47_linear_1721_81" x1="958.5" y1="219" x2="958.5" y2="155" gradientUnits="userSpaceOnUse">
<stop offset="0.405" stop-color="white" stop-opacity="0"/>
<stop offset="1" stop-color="white"/>
</linearGradient>
<linearGradient id="paint48_linear_1721_81" x1="976.5" y1="208" x2="976.5" y2="144" gradientUnits="userSpaceOnUse">
<stop offset="0.405" stop-color="white" stop-opacity="0"/>
<stop offset="1" stop-color="white"/>
</linearGradient>
<linearGradient id="paint49_linear_1721_81" x1="1033.5" y1="174" x2="1033.5" y2="110" gradientUnits="userSpaceOnUse">
<stop offset="0.405" stop-color="white" stop-opacity="0"/>
<stop offset="1" stop-color="white"/>
</linearGradient>
<linearGradient id="paint50_linear_1721_81" x1="826.5" y1="208" x2="826.5" y2="144" gradientUnits="userSpaceOnUse">
<stop offset="0.405" stop-color="white" stop-opacity="0"/>
<stop offset="1" stop-color="white"/>
</linearGradient>
<linearGradient id="paint51_linear_1721_81" x1="769.5" y1="174" x2="769.5" y2="110" gradientUnits="userSpaceOnUse">
<stop offset="0.405" stop-color="white" stop-opacity="0"/>
<stop offset="1" stop-color="white"/>
</linearGradient>
</defs>
</svg>
