<svg width="57" height="56" viewBox="0 0 57 56" fill="none" xmlns="http://www.w3.org/2000/svg">
<path d="M42.5 18.6663H47.1667C48.4554 18.6663 49.5 19.711 49.5 20.9997V48.9997C49.5 50.2884 48.4554 51.333 47.1667 51.333H9.83333C8.54468 51.333 7.5 50.2884 7.5 48.9997V20.9997C7.5 19.711 8.54468 18.6663 9.83333 18.6663H14.5V16.333C14.5 8.60102 20.768 2.33301 28.5 2.33301C36.232 2.33301 42.5 8.60102 42.5 16.333V18.6663ZM26.1667 36.7086V41.9997H30.8333V36.7086C32.2282 35.9017 33.1667 34.3937 33.1667 32.6663C33.1667 30.0889 31.0774 27.9997 28.5 27.9997C25.9226 27.9997 23.8333 30.0889 23.8333 32.6663C23.8333 34.3937 24.7718 35.9017 26.1667 36.7086ZM37.8333 18.6663V16.333C37.8333 11.1783 33.6546 6.99967 28.5 6.99967C23.3453 6.99967 19.1667 11.1783 19.1667 16.333V18.6663H37.8333Z" fill="white"/>
</svg>
