<svg width="96" height="29" viewBox="0 0 96 29" fill="none" xmlns="http://www.w3.org/2000/svg">
<path d="M46.5666 9.20215L45.0285 18.0287L49.8318 13.8365H52.7597L47.9992 17.9445L50.885 24.3694H48.1254L46.0817 19.4819H46.0603L44.565 20.6828L43.9118 24.3694H41.426L44.1015 9.20215H46.5659H46.5666Z" fill="white"/>
<path d="M57.173 13.8367L57.1309 15.5431H57.3206C57.7283 15.0092 58.2438 14.5702 58.8687 14.2267C59.4936 13.8825 60.2768 13.7104 61.2176 13.7104H61.5335L61.0914 16.1963H59.8064C58.9077 16.1963 58.1772 16.428 57.6158 16.8915C57.0544 17.355 56.6957 18.0358 56.5412 18.9352L55.5721 24.3704H53.1077L54.9618 13.8374H57.1737L57.173 13.8367Z" fill="white"/>
<path d="M64.0162 26.6032C64.2969 26.6032 64.4797 26.4693 64.5638 26.2032C64.6625 26.0066 64.7535 25.8131 64.8377 25.6242C64.9218 25.4345 64.9991 25.2272 65.0694 25.0031L62.9836 13.8384H65.5956L66.5012 20.0108C66.5578 20.3619 66.5961 20.7375 66.6175 21.1382C66.6382 21.5383 66.6489 21.9421 66.6489 22.3498H66.8386L67.3021 21.1283C67.4703 20.7206 67.6394 20.342 67.8076 19.9909L70.8832 13.8399H73.5586L66.7124 26.5214C66.502 26.9145 66.2978 27.2373 66.1012 27.4904C65.9047 27.7428 65.6936 27.9402 65.4694 28.0801C65.2446 28.2209 64.9922 28.3157 64.7115 28.3647C64.4308 28.4136 64.1072 28.4381 63.7424 28.4381H61.5304L61.8677 26.6055H64.0162V26.6032Z" fill="white"/>
<path d="M74.2349 23.2955C73.4203 22.3831 73.1747 20.9857 73.4975 19.1033C73.6658 18.1488 73.8975 17.3235 74.1928 16.6282C74.488 15.933 74.8773 15.357 75.3623 14.9012C75.8472 14.4445 76.4262 14.1042 77.1 13.8793C77.7739 13.6544 78.5747 13.542 79.5017 13.542C81.1592 13.542 82.3875 13.9986 83.1884 14.9111C83.9884 15.8236 84.2278 17.221 83.9043 19.1033C83.736 20.0441 83.5042 20.8656 83.209 21.5677C82.9138 22.2699 82.5275 22.8496 82.0502 23.3055C81.573 23.7613 81.0001 24.1025 80.3331 24.3273C79.6662 24.5522 78.8692 24.6646 77.9422 24.6646C76.2855 24.6646 75.0494 24.208 74.2349 23.2955ZM80.249 22.0947C80.6069 21.7574 80.8632 21.1746 81.0177 20.3462L81.4598 17.8604C81.586 17.0458 81.5018 16.4668 81.2074 16.1226C80.9121 15.7785 80.4065 15.6064 79.6906 15.6064H78.8057C78.0469 15.6064 77.4893 15.7746 77.1306 16.1119C76.7727 16.4492 76.5233 17.0321 76.3826 17.8604L75.9405 20.3462C75.7998 21.147 75.8808 21.7222 76.183 22.0741C76.4851 22.4251 76.9937 22.601 77.7104 22.601H78.5953C79.3396 22.601 79.891 22.4328 80.249 22.0955V22.0947Z" fill="white"/>
<path d="M89.0089 13.8367L88.9883 15.2479H89.178C89.5573 14.7844 90.0484 14.3844 90.6526 14.0471C91.2561 13.7098 91.9728 13.5415 92.8011 13.5415C93.3205 13.5415 93.7908 13.6226 94.2123 13.784C94.6337 13.9454 94.981 14.1947 95.2548 14.532C95.5286 14.8693 95.7145 15.29 95.8132 15.7956C95.9111 16.3011 95.9042 16.8908 95.7917 17.5655L94.5909 24.3697H92.1265L93.2639 17.9234C93.3197 17.5861 93.3449 17.2809 93.3373 17.0071C93.3304 16.7333 93.2669 16.4946 93.1476 16.2912C93.0283 16.0877 92.8424 15.9294 92.5893 15.817C92.3361 15.7045 91.9927 15.6487 91.5567 15.6487C90.7421 15.6487 90.0644 15.8667 89.5237 16.3019C88.9829 16.7371 88.6357 17.3689 88.4812 18.198L87.4065 24.3705H84.9421L86.7962 13.8375H89.0082L89.0089 13.8367Z" fill="white"/>
<path d="M0.278596 28.9996H15.7518C16.0547 28.9996 16.3339 28.8351 16.4815 28.5705L32.1222 0.415841C32.2744 0.141255 31.9264 -0.136391 31.6931 0.0739469L0.0927343 28.5147C-0.0969521 28.6852 0.0238965 28.9996 0.278596 28.9996Z" fill="url(#paint0_linear_182_459)"/>
<path d="M31.6159 0.611338L16.1771 28.4012C16.0914 28.5557 15.9285 28.6513 15.7518 28.6513H0.459869L31.6159 0.612103M31.8774 0.000976562C31.8155 0.000976562 31.7512 0.0231576 31.6939 0.0751684L0.0927343 28.5151C-0.0969521 28.6857 0.0238965 29 0.278596 29H15.7518C16.0547 29 16.3339 28.8356 16.4815 28.571L32.1222 0.416298C32.2377 0.209785 32.0679 0.000976562 31.8774 0.000976562Z" fill="url(#paint1_linear_182_459)" fill-opacity="0.5"/>
<path d="M29.0459 28.7949L32.1474 18.1311C32.2163 17.8948 31.9731 17.689 31.7512 17.7953L22.4459 22.2553C22.2692 22.3402 22.2287 22.5742 22.3679 22.7127L28.5717 28.9165C28.7247 29.0694 28.9855 29.0021 29.0459 28.7949Z" fill="url(#paint2_linear_182_459)"/>
<path d="M31.7742 18.1692L28.7415 28.5951L22.6761 22.5297L31.7742 18.1692ZM31.8752 17.7661C31.8346 17.7661 31.7925 17.7753 31.7512 17.7952L22.4459 22.2551C22.2692 22.34 22.2287 22.5741 22.3679 22.7125L28.5717 28.9163C28.6291 28.9729 28.701 28.9997 28.7721 28.9997C28.8914 28.9997 29.0084 28.9247 29.0467 28.7947L32.1482 18.131C32.204 17.939 32.0534 17.7661 31.8759 17.7661H31.8752Z" fill="url(#paint3_linear_182_459)" fill-opacity="0.5"/>
<defs>
<linearGradient id="paint0_linear_182_459" x1="8.52383" y1="28.2898" x2="38.5639" y2="-5.4782" gradientUnits="userSpaceOnUse">
<stop offset="0.07" stop-color="#FFAD56"/>
<stop offset="0.5" stop-color="#F4814B"/>
<stop offset="0.91" stop-color="#964426"/>
</linearGradient>
<linearGradient id="paint1_linear_182_459" x1="0.000185679" y1="14.5005" x2="32.1597" y2="14.5005" gradientUnits="userSpaceOnUse">
<stop offset="0.13" stop-color="white" stop-opacity="0"/>
<stop offset="0.27" stop-color="white" stop-opacity="0.1"/>
<stop offset="0.57" stop-color="white" stop-opacity="0.36"/>
<stop offset="1" stop-color="white" stop-opacity="0.75"/>
</linearGradient>
<linearGradient id="paint2_linear_182_459" x1="26.8462" y1="24.4053" x2="34.3732" y2="16.6649" gradientUnits="userSpaceOnUse">
<stop offset="0.07" stop-color="#FFAD56"/>
<stop offset="0.5" stop-color="#F4814B"/>
<stop offset="0.91" stop-color="#964426"/>
</linearGradient>
<linearGradient id="paint3_linear_182_459" x1="26.7704" y1="28.8949" x2="27.3663" y2="17.529" gradientUnits="userSpaceOnUse">
<stop offset="0.13" stop-color="white" stop-opacity="0"/>
<stop offset="0.27" stop-color="white" stop-opacity="0.1"/>
<stop offset="0.57" stop-color="white" stop-opacity="0.36"/>
<stop offset="1" stop-color="white" stop-opacity="0.75"/>
</linearGradient>
</defs>
</svg>
