<svg width="29" height="28" viewBox="0 0 29 28" fill="none" xmlns="http://www.w3.org/2000/svg">
<g id="puzzle-2-line">
<path id="Vector" d="M8.91667 5.83366C8.91667 3.25633 11.006 1.16699 13.5833 1.16699C16.1606 1.16699 18.25 3.25633 18.25 5.83366H24.0833C24.7277 5.83366 25.25 6.356 25.25 7.00033V11.8661C25.25 12.2448 25.0661 12.6 24.757 12.8187C24.4477 13.0374 24.0516 13.0923 23.6946 12.9661C23.4527 12.8807 23.1914 12.8337 22.9167 12.8337C21.628 12.8337 20.5833 13.8783 20.5833 15.167C20.5833 16.4557 21.628 17.5003 22.9167 17.5003C23.1914 17.5003 23.4527 17.4533 23.6946 17.3679C24.0516 17.2417 24.4477 17.2966 24.757 17.5153C25.0661 17.734 25.25 18.0891 25.25 18.4678V23.3337C25.25 23.978 24.7277 24.5003 24.0833 24.5003H5.41667C4.77234 24.5003 4.25 23.978 4.25 23.3337V7.00033C4.25 6.356 4.77234 5.83366 5.41667 5.83366H8.91667ZM13.5833 3.50033C12.2947 3.50033 11.25 4.54499 11.25 5.83366C11.25 6.10846 11.297 6.36977 11.3825 6.61153C11.5087 6.96862 11.4537 7.36473 11.235 7.67395C11.0164 7.98316 10.6612 8.16699 10.2825 8.16699H6.58333V22.167H22.9167V19.8337C20.3394 19.8337 18.25 17.7443 18.25 15.167C18.25 12.5897 20.3394 10.5003 22.9167 10.5003V8.16699H16.8842C16.5055 8.16699 16.1503 7.98316 15.9316 7.67395C15.713 7.36473 15.658 6.96862 15.7843 6.61153C15.8696 6.36977 15.9167 6.10847 15.9167 5.83366C15.9167 4.54499 14.872 3.50033 13.5833 3.50033Z" fill="currentColor"/>
</g>
</svg>
